<svg xmlns="http://www.w3.org/2000/svg" width="3000" height="3000" viewBox="0 0 3000 3000" version="1.1"><path d="M 1171.786 938.293 L 1138.073 955.500 1137.497 956.936 C 1137.180 957.725, 1135.970 1083.559, 1134.808 1236.567 C 1133.646 1389.575, 1132.974 1515.491, 1133.316 1516.381 L 1133.937 1518 1169.777 1518 L 1205.618 1518 1207.254 1516.750 L 1208.890 1515.500 1209.032 1220.500 C 1209.110 1058.250, 1209.135 924.487, 1209.087 923.250 L 1209 921 1207.250 921.043 C 1206.287 921.066, 1190.329 928.829, 1171.786 938.293 M 1020.524 1015.002 C 1003.487 1023.745, 988.974 1031.683, 988.272 1032.643 L 986.996 1034.388 987.248 1275.944 L 987.500 1517.500 1020.500 1517.500 L 1053.500 1517.500 1053.796 1264.500 C 1053.958 1125.350, 1053.810 1008.688, 1053.466 1005.250 C 1053.122 1001.813, 1052.539 999.024, 1052.170 999.053 C 1051.802 999.082, 1037.561 1006.259, 1020.524 1015.002 M 944 1053.796 L 917.500 1067.500 916.897 1086.500 C 916.566 1096.950, 916.116 1198.200, 915.897 1311.500 L 915.500 1517.500 944 1517.500 L 972.500 1517.500 972.500 1279.083 L 972.500 1040.667 971.500 1040.379 C 970.950 1040.221, 958.575 1046.259, 944 1053.796 M 828.829 1112.019 L 805.157 1123.930 804.662 1125.715 C 804.389 1126.697, 804.016 1215.250, 803.833 1322.500 L 803.500 1517.500 827.645 1517.768 L 851.790 1518.035 852.361 1503.768 C 852.675 1495.920, 853.423 1402.312, 854.025 1295.750 C 854.626 1189.187, 854.840 1101.550, 854.500 1101 C 854.160 1100.450, 853.571 1100.024, 853.191 1100.054 C 852.811 1100.083, 841.848 1105.467, 828.829 1112.019 M 2213.500 1127.034 C 2211.300 1127.479, 2208.375 1128.300, 2207 1128.858 L 2204.500 1129.873 2207.838 1129.937 L 2211.176 1130 2206.725 1136.250 C 2204.278 1139.688, 2190.679 1159.150, 2176.506 1179.500 C 2162.333 1199.850, 2150.633 1216.625, 2150.507 1216.778 C 2150.381 1216.931, 2040.978 1230.751, 1907.389 1247.490 C 1773.800 1264.229, 1655.275 1279.268, 1644 1280.910 C 1632.725 1282.552, 1601.675 1287.303, 1575 1291.468 C 1548.325 1295.633, 1522.706 1299.699, 1518.068 1300.502 C 1513.431 1301.306, 1509.209 1302.391, 1508.687 1302.913 L 1507.737 1303.863 1511.618 1305.511 C 1513.753 1306.418, 1522.250 1309.867, 1530.500 1313.176 C 1538.750 1316.485, 1557.650 1323.915, 1572.500 1329.687 C 1587.350 1335.460, 1599.822 1340.486, 1600.217 1340.858 C 1600.611 1341.229, 1600.054 1376.851, 1598.980 1420.017 C 1597.906 1463.182, 1597.021 1502.512, 1597.013 1507.416 L 1597 1516.332 1908.669 1515.664 C 2080.087 1515.296, 2220.599 1514.734, 2220.919 1514.415 C 2221.238 1514.095, 2221.500 1428.639, 2221.500 1324.512 L 2221.500 1135.191 2222.250 1135.655 C 2222.663 1135.910, 2238.100 1152.964, 2256.554 1173.553 C 2275.008 1194.141, 2290.870 1211.395, 2291.803 1211.894 C 2292.737 1212.392, 2299.350 1213.294, 2306.500 1213.898 C 2313.650 1214.502, 2341.100 1216.564, 2367.500 1218.481 C 2393.900 1220.398, 2478.449 1225.603, 2555.386 1230.047 L 2695.272 1238.128 2696.183 1237.217 L 2697.093 1236.307 2660.408 1190.403 C 2640.231 1165.157, 2622.406 1143.098, 2620.796 1141.385 L 2617.870 1138.271 2587.185 1137.624 C 2570.308 1137.268, 2542.775 1136.269, 2526 1135.403 C 2509.225 1134.538, 2433.625 1132.348, 2358 1130.536 C 2282.375 1128.724, 2219.825 1127.013, 2219 1126.733 C 2218.175 1126.453, 2215.700 1126.588, 2213.500 1127.034 M 769.500 1142.140 C 757.400 1148.228, 746.976 1153.725, 746.337 1154.355 L 745.173 1155.500 744.837 1336.500 L 744.500 1517.500 768.750 1517.768 L 793 1518.036 793 1324.518 L 793 1131 792.250 1131.035 C 791.837 1131.055, 781.600 1136.052, 769.500 1142.140 M 680.831 1187.018 C 671.112 1191.920, 662.911 1196.335, 662.605 1196.830 C 662.299 1197.325, 661.095 1269.355, 659.929 1356.896 C 658.764 1444.437, 658.063 1516.723, 658.374 1517.531 L 658.937 1519 677.490 1519 L 696.043 1519 696.936 1516.750 L 697.830 1514.500 698.940 1360.500 C 699.551 1275.800, 700.039 1200.088, 700.025 1192.250 C 700.011 1184.412, 699.663 1178.024, 699.250 1178.053 C 698.837 1178.082, 690.549 1182.117, 680.831 1187.018 M 634.250 1210.656 L 620 1218.165 620.024 1363.833 L 620.048 1509.500 620.952 1513.396 C 621.449 1515.539, 622.450 1517.677, 623.178 1518.146 L 624.500 1519 638 1518.750 L 651.500 1518.500 652.305 1365 C 652.747 1280.575, 652.832 1209.588, 652.493 1207.250 L 651.877 1203 650.189 1203.074 C 649.260 1203.114, 642.087 1206.526, 634.250 1210.656 M 567 1244.567 C 560.125 1248.159, 553.938 1251.837, 553.250 1252.740 L 552 1254.382 552 1385.569 L 552 1516.755 553.387 1517.907 L 554.775 1519.058 568.338 1518.779 L 581.902 1518.500 582.600 1378.250 L 583.299 1238 581.399 1238.018 C 580.355 1238.028, 573.875 1240.975, 567 1244.567 M 531.769 1262.552 L 523.037 1267.003 522.495 1269.251 C 522.196 1270.488, 522.075 1327.075, 522.226 1395 L 522.500 1518.500 533.500 1518.500 L 544.500 1518.500 544.760 1391 L 545.021 1263.500 543.889 1260.750 C 543.267 1259.237, 542.249 1258.023, 541.629 1258.051 C 541.008 1258.078, 536.571 1260.104, 531.769 1262.552 M 2344.667 1272.667 C 2344.300 1273.033, 2344 1290.332, 2344 1311.108 L 2344 1348.882 2344.854 1349.410 C 2345.323 1349.700, 2352.861 1350.386, 2361.604 1350.934 C 2370.347 1351.482, 2390.550 1352.158, 2406.500 1352.435 C 2422.450 1352.712, 2448.775 1353.409, 2465 1353.984 C 2481.225 1354.559, 2503.674 1355.486, 2514.888 1356.044 C 2526.101 1356.601, 2535.399 1356.932, 2535.551 1356.779 C 2535.702 1356.626, 2536.155 1340.005, 2536.556 1319.845 L 2537.286 1283.190 2530.893 1282.610 C 2527.377 1282.291, 2511.225 1281.334, 2495 1280.482 C 2478.775 1279.630, 2438.801 1277.373, 2406.169 1275.467 C 2373.537 1273.560, 2346.500 1272, 2346.086 1272 C 2345.672 1272, 2345.033 1272.300, 2344.667 1272.667 M 478.346 1289.648 C 473.481 1292.204, 469.169 1294.791, 468.765 1295.398 L 468.031 1296.500 468.031 1406.500 L 468.031 1516.500 468.847 1517.787 L 469.664 1519.074 480.082 1518.787 L 490.500 1518.500 490.754 1404.326 L 491.008 1290.152 490.029 1287.576 C 489.490 1286.159, 488.632 1285, 488.121 1285 C 487.610 1285, 483.211 1287.091, 478.346 1289.648 M 450.769 1303.552 L 442.037 1308.003 441.571 1310.251 C 441.315 1311.488, 440.814 1349.400, 440.459 1394.500 C 440.103 1439.600, 439.623 1476.694, 439.392 1476.931 C 439.160 1477.168, 436.840 1477.677, 434.236 1478.061 C 431.631 1478.445, 408.800 1481.497, 383.500 1484.843 C 358.200 1488.189, 303.525 1495.234, 262 1500.498 C 220.475 1505.763, 174.409 1511.636, 159.631 1513.550 C 144.853 1515.464, 132.317 1517.304, 131.774 1517.640 L 130.786 1518.250 132.143 1519.096 L 133.500 1519.942 295.500 1519.353 L 457.500 1518.764 459.795 1517.330 C 461.057 1516.541, 462.528 1514.740, 463.065 1513.329 C 463.602 1511.917, 464.447 1507.778, 464.942 1504.131 L 465.844 1497.500 465.113 1400 L 464.383 1302.500 463.585 1300.750 C 463.145 1299.787, 462.047 1299.023, 461.143 1299.051 C 460.239 1299.078, 455.571 1301.104, 450.769 1303.552 M 1907.823 1390.878 C 1887.101 1392.881, 1869.950 1394.741, 1869.710 1395.010 C 1869.470 1395.280, 1869.011 1411.985, 1868.689 1432.132 L 1868.105 1468.765 1910.802 1469.214 C 1934.286 1469.460, 1953.838 1469.487, 1954.250 1469.272 L 1955 1468.882 1955 1427.941 L 1955 1387 1950.250 1387.117 C 1947.638 1387.182, 1928.545 1388.874, 1907.823 1390.878 M 1791.500 1401.913 C 1776.650 1403.368, 1763.938 1404.910, 1763.250 1405.338 L 1762 1406.118 1762 1436.900 L 1762 1467.683 1782.250 1468.339 C 1793.388 1468.700, 1807.787 1468.996, 1814.250 1468.997 L 1826 1469 1826 1453.661 C 1826 1445.224, 1826.296 1429.474, 1826.658 1418.661 L 1827.317 1399 1822.908 1399.134 C 1820.484 1399.207, 1806.350 1400.458, 1791.500 1401.913 M 1688 1411.735 C 1673.975 1413.110, 1662.391 1414.329, 1662.258 1414.443 C 1662.124 1414.558, 1661.899 1426.542, 1661.758 1441.076 L 1661.500 1467.500 1687.931 1467.767 L 1714.361 1468.034 1715.165 1466.767 L 1715.969 1465.500 1715.985 1437.250 L 1716 1409 1714.750 1409.118 C 1714.063 1409.182, 1702.025 1410.360, 1688 1411.735 M 188 1652.549 C 173.425 1653.803, 140.350 1656.459, 114.500 1658.451 C 88.650 1660.442, 66.381 1662.316, 65.014 1662.614 L 62.528 1663.157 64.058 1664.013 L 65.588 1664.869 125.044 1666.954 C 157.745 1668.101, 193.725 1669.479, 205 1670.018 C 216.275 1670.556, 226.345 1670.998, 227.378 1670.998 L 229.256 1671 228.595 1666.750 C 228.231 1664.412, 227.453 1659.688, 226.864 1656.250 L 225.795 1650 220.147 1650.134 C 217.041 1650.208, 202.575 1651.295, 188 1652.549 M 753.500 1651.587 C 746.900 1652.306, 718.775 1654.947, 691 1657.456 C 663.225 1659.964, 639.038 1662.259, 637.250 1662.554 C 635.462 1662.849, 634 1663.512, 634 1664.026 C 634 1664.541, 635.013 1665.176, 636.250 1665.437 C 637.487 1665.698, 657.400 1666.630, 680.500 1667.508 C 703.600 1668.386, 730.825 1669.535, 741 1670.060 L 759.500 1671.015 760.816 1669.258 C 761.540 1668.291, 764.128 1663.936, 766.566 1659.579 C 769.005 1655.223, 771 1651.285, 771 1650.829 C 771 1650.373, 769.763 1650.063, 768.250 1650.140 C 766.737 1650.217, 760.100 1650.868, 753.500 1651.587 M 1374 1652.073 C 1369.875 1652.516, 1343.775 1654.936, 1316 1657.449 C 1288.225 1659.962, 1264.037 1662.260, 1262.250 1662.555 C 1260.463 1662.849, 1259 1663.512, 1259 1664.026 C 1259 1664.541, 1260.013 1665.176, 1261.250 1665.438 C 1262.487 1665.700, 1282.625 1666.647, 1306 1667.543 C 1329.375 1668.440, 1355.475 1669.519, 1364 1669.941 L 1379.500 1670.709 1380.614 1669.605 C 1381.226 1668.997, 1382.239 1665.263, 1382.864 1661.307 C 1383.489 1657.351, 1384 1653.414, 1384 1652.557 L 1384 1651 1382.750 1651.133 C 1382.063 1651.206, 1378.125 1651.629, 1374 1652.073 M 1673.500 1652.030 C 1669.650 1652.447, 1645.800 1654.660, 1620.500 1656.947 C 1595.200 1659.235, 1573.938 1661.293, 1573.250 1661.522 C 1572.563 1661.750, 1572 1662.804, 1572 1663.862 L 1572 1665.788 1580.750 1666.392 C 1585.563 1666.724, 1602.550 1667.487, 1618.500 1668.087 C 1634.450 1668.686, 1654.475 1669.522, 1663 1669.943 L 1678.500 1670.709 1679.614 1669.605 C 1680.226 1668.997, 1681.239 1665.263, 1681.864 1661.307 C 1682.489 1657.351, 1683 1653.414, 1683 1652.557 L 1683 1651 1681.750 1651.136 C 1681.063 1651.210, 1677.350 1651.613, 1673.500 1652.030 M 1041 1653.073 C 1036.875 1653.516, 1010.775 1655.936, 983 1658.449 C 955.225 1660.962, 931.038 1663.260, 929.250 1663.555 C 927.462 1663.849, 926 1664.512, 926 1665.026 C 926 1665.541, 927.013 1666.176, 928.250 1666.438 C 929.487 1666.700, 949.625 1667.647, 973 1668.543 C 996.375 1669.440, 1022.475 1670.519, 1031 1670.941 L 1046.500 1671.709 1047.614 1670.605 C 1048.226 1669.997, 1049.239 1666.263, 1049.864 1662.307 C 1050.489 1658.351, 1051 1654.414, 1051 1653.557 L 1051 1652 1049.750 1652.133 C 1049.063 1652.206, 1045.125 1652.629, 1041 1653.073 M 2387.500 1653.139 C 2382.550 1653.616, 2355.661 1655.956, 2327.747 1658.340 C 2299.832 1660.723, 2276.670 1662.996, 2276.276 1663.391 C 2275.881 1663.786, 2276.153 1664.476, 2276.880 1664.926 C 2277.606 1665.375, 2287.493 1666.066, 2298.851 1666.461 C 2310.208 1666.856, 2334.125 1667.760, 2352 1668.469 L 2384.500 1669.760 2386.608 1668.630 C 2387.767 1668.008, 2392.487 1664.013, 2397.096 1659.750 L 2405.477 1652 2400.988 1652.136 C 2398.520 1652.211, 2392.450 1652.662, 2387.500 1653.139 M 2713 1653.073 C 2708.875 1653.516, 2682.775 1655.936, 2655 1658.449 C 2627.225 1660.962, 2603.037 1663.260, 2601.250 1663.555 C 2599.463 1663.849, 2598 1664.512, 2598 1665.026 C 2598 1665.541, 2599.012 1666.176, 2600.250 1666.438 C 2601.488 1666.700, 2621.625 1667.647, 2645 1668.543 C 2668.375 1669.440, 2694.475 1670.519, 2703 1670.941 L 2718.500 1671.709 2719.614 1670.605 C 2720.226 1669.997, 2721.239 1666.263, 2721.864 1662.307 C 2722.489 1658.351, 2723 1654.414, 2723 1653.557 L 2723 1652 2721.750 1652.133 C 2721.063 1652.206, 2717.125 1652.629, 2713 1653.073 M 2020 1657.073 C 2015.875 1657.516, 1989.775 1659.936, 1962 1662.449 C 1934.225 1664.962, 1910.037 1667.260, 1908.250 1667.555 C 1906.463 1667.849, 1905 1668.512, 1905 1669.026 C 1905 1669.541, 1906.013 1670.176, 1907.250 1670.438 C 1908.487 1670.700, 1928.625 1671.647, 1952 1672.543 C 1975.375 1673.440, 2001.475 1674.519, 2010 1674.941 L 2025.500 1675.709 2026.614 1674.605 C 2027.226 1673.997, 2028.239 1670.263, 2028.864 1666.307 C 2029.489 1662.351, 2030 1658.414, 2030 1657.557 L 2030 1656 2028.750 1656.133 C 2028.063 1656.206, 2024.125 1656.629, 2020 1657.073 M 1364 1692.591 C 1363.175 1692.788, 1339.784 1695.014, 1312.021 1697.537 C 1284.257 1700.061, 1261.364 1702.303, 1261.147 1702.520 C 1260.930 1702.736, 1260.999 1703.556, 1261.300 1704.340 L 1261.848 1705.766 1276.674 1706.425 C 1284.828 1706.787, 1306.800 1707.736, 1325.500 1708.532 C 1344.200 1709.329, 1362.922 1709.985, 1367.103 1709.990 L 1374.707 1710 1375.853 1703.057 C 1376.484 1699.239, 1377 1695.189, 1377 1694.057 L 1377 1692 1371.250 1692.116 C 1368.088 1692.180, 1364.825 1692.393, 1364 1692.591 M 1661 1692.748 C 1659.075 1692.975, 1637.250 1695.037, 1612.500 1697.330 L 1567.500 1701.500 1567.193 1703.652 L 1566.886 1705.805 1576.193 1706.398 C 1581.312 1706.724, 1602.375 1707.671, 1623 1708.503 C 1643.625 1709.334, 1663.472 1710.011, 1667.103 1710.007 L 1673.707 1710 1674.853 1703.057 C 1675.484 1699.239, 1676 1695.189, 1676 1694.057 L 1676 1692 1670.250 1692.168 C 1667.088 1692.261, 1662.925 1692.522, 1661 1692.748 M 193 1695.549 C 178.425 1696.803, 145.350 1699.459, 119.500 1701.451 C 93.650 1703.442, 71.381 1705.316, 70.014 1705.614 L 67.528 1706.157 69.058 1707.013 L 70.588 1707.869 130.044 1709.954 C 162.745 1711.101, 198.725 1712.479, 210 1713.018 C 221.275 1713.556, 231.345 1713.998, 232.378 1713.998 L 234.256 1714 233.595 1709.750 C 233.231 1707.412, 232.453 1702.688, 231.864 1699.250 L 230.795 1693 225.147 1693.134 C 222.041 1693.208, 207.575 1694.295, 193 1695.549 M 1030 1693.681 C 1028.625 1693.891, 1003.752 1696.233, 974.728 1698.887 C 945.703 1701.540, 921.641 1704.026, 921.257 1704.410 C 920.872 1704.794, 921.145 1705.472, 921.863 1705.915 C 922.581 1706.359, 931.568 1707.035, 941.834 1707.417 C 952.100 1707.799, 975.350 1708.757, 993.500 1709.546 C 1011.650 1710.335, 1029.922 1710.985, 1034.103 1710.990 L 1041.707 1711 1042.853 1704.057 C 1043.484 1700.239, 1044 1696.189, 1044 1695.057 L 1044 1693 1038.250 1693.150 C 1035.088 1693.232, 1031.375 1693.471, 1030 1693.681 M 2348 1694.064 C 2343.875 1694.500, 2317.775 1696.738, 2290 1699.037 C 2262.225 1701.336, 2238.887 1703.398, 2238.137 1703.620 L 2236.775 1704.024 2237.892 1705.370 L 2239.009 1706.716 2257.755 1707.402 C 2268.065 1707.779, 2293.533 1708.760, 2314.352 1709.582 L 2352.203 1711.076 2353.621 1709.899 C 2354.401 1709.252, 2357.105 1705.767, 2359.630 1702.155 C 2362.155 1698.544, 2364.444 1695.006, 2364.717 1694.294 L 2365.214 1693 2360.357 1693.136 C 2357.686 1693.210, 2352.125 1693.628, 2348 1694.064 M 2702 1693.681 C 2700.625 1693.891, 2675.752 1696.233, 2646.728 1698.887 C 2617.703 1701.540, 2593.641 1704.026, 2593.257 1704.410 C 2592.872 1704.794, 2593.145 1705.472, 2593.863 1705.915 C 2594.581 1706.359, 2603.568 1707.035, 2613.834 1707.417 C 2624.100 1707.799, 2647.350 1708.757, 2665.500 1709.546 C 2683.650 1710.335, 2701.922 1710.985, 2706.103 1710.990 L 2713.707 1711 2714.853 1704.057 C 2715.484 1700.239, 2716 1696.189, 2716 1695.057 L 2716 1693 2710.250 1693.150 C 2707.088 1693.232, 2703.375 1693.471, 2702 1693.681 M 729.500 1696.598 C 722.900 1697.322, 694.775 1699.970, 667 1702.480 C 639.225 1704.991, 615.038 1707.280, 613.250 1707.568 C 611.462 1707.855, 610 1708.512, 610 1709.026 C 610 1709.541, 611.013 1710.174, 612.250 1710.434 C 613.487 1710.694, 633.400 1711.625, 656.500 1712.503 C 679.600 1713.381, 706.517 1714.502, 716.317 1714.993 C 726.116 1715.484, 734.718 1715.662, 735.432 1715.388 C 736.146 1715.114, 739.070 1710.414, 741.931 1704.945 L 747.131 1695 744.316 1695.140 C 742.767 1695.217, 736.100 1695.873, 729.500 1696.598 M 2009 1697.681 C 2007.625 1697.891, 1982.752 1700.233, 1953.728 1702.887 C 1924.703 1705.540, 1900.641 1708.026, 1900.257 1708.410 C 1899.872 1708.794, 1900.145 1709.472, 1900.863 1709.915 C 1901.581 1710.359, 1910.568 1711.035, 1920.834 1711.417 C 1931.100 1711.799, 1954.350 1712.757, 1972.500 1713.546 C 1990.650 1714.335, 2008.922 1714.985, 2013.103 1714.990 L 2020.707 1715 2021.853 1708.057 C 2022.484 1704.239, 2023 1700.189, 2023 1699.057 L 2023 1697 2017.250 1697.150 C 2014.088 1697.232, 2010.375 1697.471, 2009 1697.681 M 1314.500 1739.563 C 1289.750 1741.933, 1268.311 1743.900, 1266.857 1743.936 L 1264.214 1744 1263.574 1745.667 L 1262.934 1747.334 1263.894 1748.294 L 1264.853 1749.253 1310.177 1751.148 C 1335.104 1752.190, 1358.200 1752.920, 1361.500 1752.771 L 1367.500 1752.500 1368.654 1747 C 1369.288 1743.975, 1369.851 1740.037, 1369.904 1738.250 L 1370 1735 1364.750 1735.127 C 1361.862 1735.198, 1339.250 1737.194, 1314.500 1739.563 M 1602.716 1740.492 C 1572.035 1743.375, 1546.623 1746.044, 1546.245 1746.422 C 1545.867 1746.800, 1546.220 1747.527, 1547.029 1748.039 C 1547.838 1748.551, 1550.692 1748.976, 1553.371 1748.985 C 1556.050 1748.993, 1580.461 1749.925, 1607.617 1751.055 C 1634.773 1752.185, 1659.132 1752.973, 1661.746 1752.805 L 1666.500 1752.500 1667.654 1747 C 1668.288 1743.975, 1668.851 1740.037, 1668.904 1738.250 L 1669 1735 1663.750 1735.125 C 1660.862 1735.193, 1633.397 1737.609, 1602.716 1740.492 M 2326 1736.228 C 2320.775 1736.752, 2299.625 1738.603, 2279 1740.342 L 2241.500 1743.504 2241.183 1746.258 L 2240.866 1749.011 2242.183 1749.427 C 2242.907 1749.655, 2258.575 1750.334, 2277 1750.936 C 2295.425 1751.538, 2315.320 1752.311, 2321.211 1752.655 L 2331.923 1753.280 2335.461 1745.515 C 2337.408 1741.244, 2339 1737.131, 2339 1736.375 L 2339 1735 2337.250 1735.138 C 2336.287 1735.214, 2331.225 1735.704, 2326 1736.228 M 715 1737.130 C 710.875 1737.609, 682.975 1740.240, 653 1742.975 C 623.025 1745.711, 596.587 1748.213, 594.250 1748.536 C 591.913 1748.858, 590 1749.536, 590 1750.042 C 590 1750.548, 591.013 1751.174, 592.250 1751.434 C 593.487 1751.693, 619.250 1752.834, 649.500 1753.969 C 679.750 1755.105, 706.361 1756.271, 708.635 1756.561 L 712.769 1757.088 714.230 1755.627 C 715.033 1754.824, 717.560 1750.573, 719.845 1746.181 C 722.130 1741.788, 724 1737.701, 724 1737.097 C 724 1736.494, 723.663 1736.058, 723.250 1736.130 C 722.837 1736.201, 719.125 1736.651, 715 1737.130 M 970.716 1741.492 C 940.035 1744.375, 914.623 1747.044, 914.245 1747.422 C 913.867 1747.800, 914.220 1748.527, 915.029 1749.039 C 915.838 1749.551, 918.692 1749.976, 921.371 1749.985 C 924.050 1749.993, 948.461 1750.925, 975.617 1752.055 C 1002.773 1753.185, 1027.132 1753.973, 1029.746 1753.805 L 1034.500 1753.500 1035.654 1748 C 1036.288 1744.975, 1036.851 1741.037, 1036.904 1739.250 L 1037 1736 1031.750 1736.125 C 1028.862 1736.193, 1001.397 1738.609, 970.716 1741.492 M 2649.782 1740.826 L 2601.065 1745.389 2600.625 1746.535 C 2600.383 1747.166, 2600.528 1748.237, 2600.948 1748.915 L 2601.710 1750.149 2648.605 1752.109 C 2674.397 1753.186, 2697.975 1753.940, 2701 1753.784 L 2706.500 1753.500 2707.654 1748 C 2708.288 1744.975, 2708.851 1741.037, 2708.904 1739.250 L 2709 1736 2703.750 1736.131 C 2700.863 1736.204, 2676.577 1738.316, 2649.782 1740.826 M 198 1739.549 C 183.425 1740.803, 150.350 1743.459, 124.500 1745.451 C 98.650 1747.442, 76.381 1749.316, 75.014 1749.614 L 72.528 1750.157 74.058 1751.013 L 75.588 1751.869 135.044 1753.954 C 167.745 1755.101, 203.725 1756.479, 215 1757.018 C 226.275 1757.556, 236.345 1757.998, 237.378 1757.998 L 239.256 1758 238.595 1753.750 C 238.231 1751.412, 237.453 1746.688, 236.864 1743.250 L 235.795 1737 230.147 1737.134 C 227.041 1737.208, 212.575 1738.295, 198 1739.549 M 1955.500 1744.930 L 1905.500 1749.592 1905.198 1751.663 L 1904.896 1753.735 1914.698 1754.352 C 1920.089 1754.691, 1943.902 1755.722, 1967.615 1756.643 C 1991.328 1757.564, 2011.414 1758.055, 2012.249 1757.735 L 2013.768 1757.152 2014.884 1750.744 C 2015.498 1747.220, 2016 1743.361, 2016 1742.168 L 2016 1740 2010.750 1740.134 C 2007.862 1740.208, 1983 1742.366, 1955.500 1744.930 M 689.067 1779.121 C 684.978 1779.595, 656.853 1782.246, 626.567 1785.013 C 596.280 1787.779, 570.487 1790.267, 569.250 1790.540 L 567 1791.038 567 1792.519 L 567 1794 572.077 1794 C 574.869 1794, 598.832 1794.883, 625.327 1795.963 C 651.822 1797.042, 677.344 1798.194, 682.042 1798.521 L 690.584 1799.118 692.156 1797.309 C 693.021 1796.314, 695.590 1791.884, 697.864 1787.464 C 700.139 1783.044, 702 1779.107, 702 1778.714 C 702 1778.321, 700.763 1778.058, 699.250 1778.130 C 697.737 1778.201, 693.155 1778.647, 689.067 1779.121 M 1357.500 1778.629 C 1356.400 1778.826, 1330.995 1781.235, 1301.045 1783.984 L 1246.589 1788.982 1245.104 1790.467 C 1244.287 1791.284, 1243.817 1792.145, 1244.060 1792.380 C 1244.302 1792.616, 1268.350 1793.752, 1297.500 1794.905 C 1326.650 1796.059, 1352.369 1797.212, 1354.654 1797.469 L 1358.809 1797.936 1359.781 1796.718 C 1360.316 1796.048, 1361.259 1792.538, 1361.877 1788.918 C 1362.495 1785.298, 1363 1781.361, 1363 1780.168 L 1363 1778 1361.250 1778.136 C 1360.287 1778.211, 1358.600 1778.433, 1357.500 1778.629 M 1656.500 1778.631 C 1655.400 1778.829, 1632.225 1781.006, 1605 1783.470 C 1577.775 1785.935, 1553.588 1788.214, 1551.250 1788.537 L 1547 1789.123 1547 1791.061 C 1547 1792.128, 1547.475 1793, 1548.057 1793 C 1548.638 1793, 1571.025 1793.886, 1597.807 1794.969 C 1624.588 1796.052, 1649.069 1797.133, 1652.209 1797.371 L 1657.919 1797.803 1658.836 1796.651 C 1659.341 1796.018, 1660.259 1792.538, 1660.877 1788.918 C 1661.495 1785.298, 1662 1781.361, 1662 1780.168 L 1662 1778 1660.250 1778.136 C 1659.287 1778.211, 1657.600 1778.434, 1656.500 1778.631 M 203 1781.549 C 188.425 1782.803, 155.350 1785.459, 129.500 1787.451 C 103.650 1789.442, 81.381 1791.316, 80.014 1791.614 L 77.528 1792.157 79.058 1793.013 L 80.588 1793.869 140.044 1795.954 C 172.745 1797.101, 208.725 1798.479, 220 1799.018 C 231.275 1799.556, 241.345 1799.998, 242.378 1799.998 L 244.256 1800 243.595 1795.750 C 243.231 1793.412, 242.453 1788.688, 241.864 1785.250 L 240.795 1779 235.147 1779.134 C 232.041 1779.208, 217.575 1780.295, 203 1781.549 M 1023.467 1779.707 C 1021.798 1779.920, 994.684 1782.475, 963.212 1785.385 C 931.741 1788.295, 905.686 1790.981, 905.312 1791.354 C 904.939 1791.728, 905.053 1792.416, 905.567 1792.883 L 906.500 1793.732 963 1795.897 C 994.075 1797.087, 1020.900 1798.281, 1022.612 1798.550 L 1025.723 1799.039 1026.738 1797.769 C 1027.297 1797.071, 1028.259 1793.538, 1028.877 1789.918 C 1029.495 1786.298, 1030 1782.361, 1030 1781.168 L 1030 1779 1028.250 1779.160 C 1027.287 1779.248, 1025.135 1779.494, 1023.467 1779.707 M 2695.500 1779.710 C 2693.850 1779.924, 2671.844 1781.998, 2646.597 1784.318 L 2600.695 1788.537 2599.688 1790.132 C 2599.135 1791.010, 2598.929 1792.374, 2599.232 1793.163 L 2599.783 1794.597 2646.141 1796.348 C 2671.639 1797.311, 2693.666 1798.322, 2695.091 1798.594 L 2697.681 1799.089 2698.718 1797.794 C 2699.288 1797.083, 2700.259 1793.538, 2700.877 1789.918 C 2701.495 1786.298, 2702 1782.361, 2702 1781.168 L 2702 1779 2700.250 1779.160 C 2699.287 1779.248, 2697.150 1779.496, 2695.500 1779.710 M 2311 1780.662 C 2309.625 1780.862, 2290.082 1782.575, 2267.572 1784.469 L 2226.643 1787.912 2224.627 1789.928 C 2223.518 1791.037, 2222.900 1792.233, 2223.252 1792.585 C 2223.605 1792.938, 2245.590 1794.077, 2272.109 1795.117 C 2298.628 1796.158, 2320.524 1796.810, 2320.767 1796.567 C 2321.010 1796.324, 2321.836 1792.834, 2322.603 1788.812 C 2323.370 1784.791, 2323.998 1781.162, 2323.999 1780.750 C 2323.999 1780.338, 2321.637 1780.067, 2318.750 1780.150 C 2315.863 1780.232, 2312.375 1780.463, 2311 1780.662 M 2003.500 1783.631 C 2002.400 1783.829, 1979.225 1786.024, 1952 1788.510 L 1902.500 1793.029 1901.246 1794.711 L 1899.993 1796.393 1900.929 1797.329 L 1901.866 1798.266 1946.183 1800.069 C 1970.557 1801.060, 1993.763 1802.058, 1997.752 1802.286 L 2005.004 1802.700 2005.879 1801.600 C 2006.360 1800.995, 2007.259 1797.538, 2007.877 1793.918 C 2008.495 1790.298, 2009 1786.361, 2009 1785.168 L 2009 1783 2007.250 1783.136 C 2006.287 1783.211, 2004.600 1783.434, 2003.500 1783.631 M 1345.500 1823.029 C 1341.650 1823.446, 1315.550 1825.869, 1287.500 1828.414 C 1259.450 1830.959, 1235.037 1833.278, 1233.250 1833.566 C 1231.463 1833.855, 1230 1834.512, 1230 1835.026 C 1230 1835.541, 1231.013 1836.176, 1232.250 1836.438 C 1233.487 1836.700, 1253.625 1837.645, 1277 1838.539 C 1300.375 1839.433, 1326.700 1840.525, 1335.500 1840.966 L 1351.500 1841.768 1352.614 1840.634 C 1353.226 1840.010, 1354.239 1836.263, 1354.864 1832.307 C 1355.489 1828.351, 1356 1824.414, 1356 1823.557 L 1356 1822 1354.250 1822.136 C 1353.287 1822.210, 1349.350 1822.612, 1345.500 1823.029 M 1644.500 1823.029 C 1640.650 1823.446, 1614.550 1825.869, 1586.500 1828.414 C 1558.450 1830.959, 1534.037 1833.278, 1532.250 1833.566 C 1530.463 1833.855, 1529 1834.512, 1529 1835.026 C 1529 1835.541, 1530.013 1836.176, 1531.250 1836.438 C 1532.487 1836.700, 1552.625 1837.645, 1576 1838.539 C 1599.375 1839.433, 1625.700 1840.525, 1634.500 1840.966 L 1650.500 1841.768 1651.614 1840.634 C 1652.226 1840.010, 1653.239 1836.263, 1653.864 1832.307 C 1654.489 1828.351, 1655 1824.414, 1655 1823.557 L 1655 1822 1653.250 1822.136 C 1652.287 1822.210, 1648.350 1822.612, 1644.500 1823.029 M 208 1825.549 C 193.425 1826.803, 160.350 1829.459, 134.500 1831.451 C 108.650 1833.442, 86.381 1835.316, 85.014 1835.614 L 82.528 1836.157 84.058 1837.013 L 85.588 1837.869 145.044 1839.954 C 177.745 1841.101, 213.725 1842.479, 225 1843.018 C 236.275 1843.556, 246.345 1843.998, 247.378 1843.998 L 249.256 1844 248.595 1839.750 C 248.231 1837.412, 247.453 1832.688, 246.864 1829.250 L 245.795 1823 240.147 1823.134 C 237.041 1823.208, 222.575 1824.295, 208 1825.549 M 1012.500 1824.029 C 1008.650 1824.446, 982.550 1826.869, 954.500 1829.414 C 926.450 1831.959, 902.038 1834.278, 900.250 1834.566 C 898.462 1834.855, 897 1835.512, 897 1836.026 C 897 1836.541, 898.013 1837.176, 899.250 1837.438 C 900.487 1837.700, 920.625 1838.645, 944 1839.539 C 967.375 1840.433, 993.700 1841.525, 1002.500 1841.966 L 1018.500 1842.768 1019.614 1841.634 C 1020.226 1841.010, 1021.239 1837.263, 1021.864 1833.307 C 1022.489 1829.351, 1023 1825.414, 1023 1824.557 L 1023 1823 1021.250 1823.136 C 1020.288 1823.210, 1016.350 1823.612, 1012.500 1824.029 M 2309 1824.060 C 2304.875 1824.497, 2279.675 1826.685, 2253 1828.923 C 2226.325 1831.160, 2202.588 1833.245, 2200.250 1833.557 C 2197.912 1833.868, 2196 1834.536, 2196 1835.042 C 2196 1835.548, 2197.012 1836.175, 2198.250 1836.435 C 2199.488 1836.695, 2221.425 1837.657, 2247 1838.573 C 2272.575 1839.489, 2299.573 1840.298, 2306.995 1840.369 L 2320.490 1840.500 2320.185 1833.500 C 2320.017 1829.650, 2319.652 1825.713, 2319.373 1824.750 C 2319.094 1823.787, 2318.333 1823.060, 2317.683 1823.133 C 2317.032 1823.206, 2313.125 1823.623, 2309 1824.060 M 2684 1824.073 C 2679.875 1824.517, 2656.700 1826.710, 2632.500 1828.947 L 2588.500 1833.014 2587.250 1834.698 C 2586.563 1835.624, 2586 1836.710, 2586 1837.112 C 2586 1837.513, 2588.813 1838.095, 2592.250 1838.406 C 2595.688 1838.717, 2612 1839.464, 2628.500 1840.066 C 2645 1840.668, 2665.700 1841.523, 2674.500 1841.964 L 2690.500 1842.768 2691.614 1841.634 C 2692.226 1841.010, 2693.239 1837.263, 2693.864 1833.307 C 2694.489 1829.351, 2695 1825.414, 2695 1824.557 L 2695 1823 2693.250 1823.133 C 2692.287 1823.206, 2688.125 1823.629, 2684 1824.073 M 661.500 1825.591 C 654.900 1826.312, 626.550 1828.981, 598.500 1831.523 C 570.450 1834.065, 546.938 1836.323, 546.250 1836.541 C 545.563 1836.759, 545 1837.626, 545 1838.469 L 545 1840 549.536 1840 C 552.031 1840, 570.819 1840.684, 591.286 1841.520 C 611.754 1842.355, 637.020 1843.456, 647.433 1843.966 C 657.846 1844.475, 666.745 1844.657, 667.210 1844.370 C 667.674 1844.084, 669.947 1840.170, 672.260 1835.674 C 674.573 1831.178, 676.797 1826.713, 677.201 1825.750 L 677.936 1824 675.718 1824.140 C 674.498 1824.217, 668.100 1824.869, 661.500 1825.591 M 1990.500 1828.119 C 1986.100 1828.589, 1960.707 1830.988, 1934.071 1833.452 L 1885.641 1837.930 1884.130 1839.441 C 1883.299 1840.272, 1882.818 1841.151, 1883.061 1841.394 C 1883.304 1841.637, 1901.727 1842.577, 1924.001 1843.482 C 1946.276 1844.388, 1971.925 1845.498, 1981 1845.949 L 1997.500 1846.770 1998.614 1845.635 C 1999.226 1845.011, 2000.239 1841.263, 2000.864 1837.307 C 2001.489 1833.351, 2002 1829.414, 2002 1828.557 L 2002 1827 2000.250 1827.133 C 1999.287 1827.206, 1994.900 1827.650, 1990.500 1828.119 M 1337.500 1863.037 C 1333.650 1863.458, 1307.550 1865.883, 1279.500 1868.424 C 1251.450 1870.966, 1227.037 1873.280, 1225.250 1873.568 C 1223.463 1873.855, 1222 1874.512, 1222 1875.026 C 1222 1875.541, 1223.013 1876.174, 1224.250 1876.434 C 1225.487 1876.694, 1245.400 1877.625, 1268.500 1878.504 C 1291.600 1879.384, 1318.375 1880.498, 1328 1880.982 L 1345.500 1881.860 1346.308 1881.072 C 1346.752 1880.639, 1347.721 1876.508, 1348.461 1871.892 C 1349.200 1867.277, 1349.598 1863.162, 1349.344 1862.750 C 1349.090 1862.338, 1347.896 1862.061, 1346.691 1862.136 C 1345.486 1862.210, 1341.350 1862.616, 1337.500 1863.037 M 1635.500 1863.135 C 1631.100 1863.613, 1608.825 1865.712, 1586 1867.800 L 1544.500 1871.597 1544.198 1874.649 L 1543.896 1877.702 1565.698 1878.425 C 1577.689 1878.823, 1600.325 1879.749, 1616 1880.484 L 1644.500 1881.820 1645.308 1881.052 C 1645.752 1880.630, 1646.721 1876.508, 1647.461 1871.892 C 1648.200 1867.277, 1648.598 1863.162, 1648.344 1862.750 C 1648.090 1862.338, 1646.896 1862.060, 1645.691 1862.133 C 1644.486 1862.206, 1639.900 1862.657, 1635.500 1863.135 M 1004.500 1864.037 C 1000.650 1864.457, 974.775 1866.898, 947 1869.460 C 919.225 1872.023, 896.181 1874.434, 895.792 1874.818 C 895.402 1875.202, 895.404 1876.036, 895.796 1876.670 L 896.509 1877.823 937.004 1879.467 C 959.277 1880.371, 985.375 1881.505, 995 1881.986 L 1012.500 1882.860 1013.308 1882.072 C 1013.752 1881.639, 1014.721 1877.508, 1015.461 1872.892 C 1016.200 1868.277, 1016.598 1864.162, 1016.344 1863.750 C 1016.090 1863.338, 1014.896 1863.061, 1013.691 1863.136 C 1012.486 1863.210, 1008.350 1863.616, 1004.500 1864.037 M 2676.500 1864.037 C 2672.650 1864.458, 2646.550 1866.910, 2618.500 1869.485 L 2567.500 1874.167 2566.060 1875.560 C 2565.267 1876.326, 2564.817 1877.135, 2565.060 1877.359 C 2565.302 1877.582, 2584.400 1878.516, 2607.500 1879.434 C 2630.600 1880.352, 2657.375 1881.498, 2667 1881.982 L 2684.500 1882.860 2685.308 1882.072 C 2685.752 1881.639, 2686.721 1877.508, 2687.461 1872.892 C 2688.200 1868.277, 2688.598 1864.162, 2688.344 1863.750 C 2688.090 1863.338, 2686.896 1863.061, 2685.691 1863.136 C 2684.486 1863.210, 2680.350 1863.616, 2676.500 1864.037 M 214 1866.549 C 199.425 1867.803, 166.350 1870.459, 140.500 1872.451 C 114.650 1874.442, 92.381 1876.316, 91.014 1876.614 L 88.528 1877.157 90.058 1878.013 L 91.588 1878.869 151.044 1880.954 C 183.745 1882.101, 219.725 1883.479, 231 1884.018 C 242.275 1884.556, 252.345 1884.998, 253.378 1884.998 L 255.256 1885 254.595 1880.750 C 254.231 1878.412, 253.453 1873.688, 252.864 1870.250 L 251.795 1864 246.147 1864.134 C 243.041 1864.208, 228.575 1865.295, 214 1866.549 M 640.500 1865.598 C 633.900 1866.322, 605.775 1868.997, 578 1871.541 L 527.500 1876.167 526.072 1877.547 L 524.645 1878.927 526.072 1879.413 C 526.858 1879.680, 545.950 1880.621, 568.500 1881.504 C 591.050 1882.386, 617.326 1883.496, 626.891 1883.969 C 636.456 1884.442, 644.781 1884.634, 645.391 1884.395 C 646.001 1884.156, 648.638 1879.969, 651.250 1875.090 C 653.862 1870.212, 656 1865.721, 656 1865.110 C 656 1864.500, 655.212 1864.063, 654.250 1864.140 C 653.288 1864.217, 647.100 1864.873, 640.500 1865.598 M 2319.500 1864.606 C 2318.400 1864.808, 2293.200 1866.994, 2263.500 1869.464 C 2233.800 1871.934, 2207.588 1874.218, 2205.250 1874.539 C 2202.912 1874.860, 2201 1875.536, 2201 1876.042 C 2201 1876.548, 2202.012 1877.176, 2203.250 1877.437 C 2204.488 1877.698, 2232.050 1878.836, 2264.500 1879.965 C 2296.950 1881.094, 2325.188 1882.244, 2327.250 1882.520 L 2331 1883.024 2330.937 1881.262 C 2330.903 1880.293, 2329.665 1876.125, 2328.187 1872 L 2325.500 1864.500 2323.500 1864.369 C 2322.400 1864.297, 2320.600 1864.403, 2319.500 1864.606 M 1983.500 1868.037 C 1979.650 1868.458, 1953.550 1870.883, 1925.500 1873.424 C 1897.450 1875.966, 1873.037 1878.280, 1871.250 1878.568 C 1869.463 1878.855, 1868 1879.512, 1868 1880.026 C 1868 1880.541, 1869.013 1881.174, 1870.250 1881.434 C 1871.487 1881.694, 1891.400 1882.625, 1914.500 1883.504 C 1937.600 1884.384, 1964.375 1885.498, 1974 1885.982 L 1991.500 1886.860 1992.308 1886.072 C 1992.752 1885.639, 1993.721 1881.508, 1994.461 1876.892 C 1995.200 1872.277, 1995.598 1868.162, 1995.344 1867.750 C 1995.090 1867.338, 1993.896 1867.061, 1992.691 1867.136 C 1991.486 1867.210, 1987.350 1867.616, 1983.500 1868.037 M 616 1908.644 C 609.125 1909.395, 581.778 1912.012, 555.229 1914.459 C 528.680 1916.906, 506.517 1919.180, 505.979 1919.513 C 505.440 1919.846, 505 1920.709, 505 1921.431 L 505 1922.744 518.750 1923.385 C 526.313 1923.737, 549.150 1924.685, 569.500 1925.490 C 589.850 1926.296, 609.897 1927.213, 614.049 1927.528 L 621.597 1928.102 623.136 1926.301 C 623.983 1925.311, 626.548 1921.034, 628.838 1916.797 C 631.127 1912.561, 633 1908.623, 633 1908.047 L 633 1907 630.750 1907.139 C 629.513 1907.215, 622.875 1907.892, 616 1908.644 M 1331 1908.081 C 1326.875 1908.529, 1303.815 1910.719, 1279.756 1912.948 C 1255.697 1915.177, 1235.303 1917, 1234.436 1917 L 1232.861 1917 1233.180 1919.222 L 1233.500 1921.444 1237.500 1922.133 C 1239.700 1922.511, 1261.975 1923.618, 1287 1924.592 C 1312.025 1925.566, 1334.066 1926.394, 1335.981 1926.431 L 1339.462 1926.500 1340.684 1920 C 1341.357 1916.425, 1341.928 1912.037, 1341.953 1910.250 L 1342 1907 1340.250 1907.133 C 1339.287 1907.206, 1335.125 1907.633, 1331 1908.081 M 1629.500 1908.135 C 1625.100 1908.613, 1602.825 1910.712, 1580 1912.800 L 1538.500 1916.597 1538.187 1919.798 L 1537.873 1923 1545.687 1923.002 C 1549.984 1923.004, 1569.025 1923.663, 1588 1924.467 C 1606.975 1925.272, 1626.092 1926.058, 1630.482 1926.215 L 1638.465 1926.500 1639.686 1920 C 1640.357 1916.425, 1640.928 1912.037, 1640.953 1910.250 L 1641 1907 1639.250 1907.133 C 1638.287 1907.206, 1633.900 1907.657, 1629.500 1908.135 M 221 1910.549 C 206.425 1911.803, 173.350 1914.459, 147.500 1916.451 C 121.650 1918.442, 99.381 1920.316, 98.014 1920.614 L 95.528 1921.157 97.058 1922.013 L 98.588 1922.869 158.044 1924.954 C 190.745 1926.101, 226.725 1927.479, 238 1928.018 C 249.275 1928.556, 259.345 1928.998, 260.378 1928.998 L 262.256 1929 261.595 1924.750 C 261.231 1922.412, 260.453 1917.688, 259.864 1914.250 L 258.795 1908 253.147 1908.134 C 250.041 1908.208, 235.575 1909.295, 221 1910.549 M 998 1909.081 C 993.875 1909.529, 970.961 1911.706, 947.080 1913.918 L 903.660 1917.940 902.602 1918.998 L 901.545 1920.055 902.630 1921.778 L 903.716 1923.500 909.108 1923.724 C 912.074 1923.848, 932.725 1924.651, 955 1925.510 C 977.275 1926.369, 997.962 1927.168, 1000.972 1927.286 L 1006.444 1927.500 1007.675 1921 C 1008.353 1917.425, 1008.928 1913.037, 1008.953 1911.250 L 1009 1908 1007.250 1908.133 C 1006.288 1908.206, 1002.125 1908.633, 998 1909.081 M 2669.500 1909.131 C 2665.100 1909.606, 2637.752 1912.181, 2608.728 1914.853 C 2579.703 1917.525, 2555.641 1920.026, 2555.257 1920.410 C 2554.872 1920.794, 2555.142 1921.470, 2555.856 1921.911 C 2556.570 1922.352, 2565.332 1923.021, 2575.327 1923.397 C 2585.322 1923.773, 2609.250 1924.727, 2628.500 1925.518 C 2647.750 1926.309, 2666.866 1927.078, 2670.981 1927.228 L 2678.461 1927.500 2679.684 1921 C 2680.356 1917.425, 2680.928 1913.037, 2680.953 1911.250 L 2681 1908 2679.250 1908.133 C 2678.287 1908.206, 2673.900 1908.655, 2669.500 1909.131 M 2336.500 1909.616 C 2335.400 1909.805, 2312.675 1911.767, 2286 1913.975 C 2259.325 1916.184, 2235.588 1918.245, 2233.250 1918.557 C 2230.912 1918.868, 2229 1919.525, 2229 1920.016 C 2229 1920.507, 2230.463 1921.143, 2232.250 1921.429 C 2234.037 1921.715, 2255.750 1922.669, 2280.500 1923.549 C 2305.250 1924.429, 2333.375 1925.503, 2343 1925.937 C 2352.625 1926.370, 2360.822 1926.545, 2361.215 1926.325 C 2361.609 1926.105, 2358.684 1922.123, 2354.715 1917.475 L 2347.500 1909.026 2343 1909.149 C 2340.525 1909.217, 2337.600 1909.427, 2336.500 1909.616 M 1976.500 1913.131 C 1972.100 1913.606, 1944.752 1916.181, 1915.728 1918.853 C 1886.703 1921.525, 1862.641 1924.026, 1862.257 1924.410 C 1861.872 1924.794, 1862.142 1925.470, 1862.856 1925.911 C 1863.570 1926.352, 1872.332 1927.021, 1882.327 1927.397 C 1892.322 1927.773, 1916.250 1928.727, 1935.500 1929.518 C 1954.750 1930.309, 1973.866 1931.078, 1977.981 1931.228 L 1985.461 1931.500 1986.684 1925 C 1987.356 1921.425, 1987.928 1917.037, 1987.953 1915.250 L 1988 1912 1986.250 1912.133 C 1985.287 1912.206, 1980.900 1912.655, 1976.500 1913.131" stroke="none" fill="#b35b2b" fill-rule="evenodd"/><path d="M 1259 899.979 L 1257.500 900.927 1256.692 1202.713 C 1256.247 1368.696, 1256.171 1507.314, 1256.522 1510.754 L 1257.160 1517.009 1367.830 1516.754 L 1478.500 1516.500 1479.214 1490 C 1479.607 1475.425, 1480.660 1418.050, 1481.553 1362.500 C 1482.446 1306.950, 1483.516 1246.534, 1483.930 1228.242 C 1484.345 1209.949, 1484.889 1194.777, 1485.141 1194.526 C 1485.392 1194.274, 1492.101 1194.486, 1500.049 1194.996 C 1507.997 1195.507, 1532.500 1196.659, 1554.500 1197.557 L 1594.500 1199.190 1648.500 1199.345 L 1702.500 1199.500 1951 1165.298 L 2199.500 1131.096 2206.016 1129.066 C 2209.599 1127.949, 2214.099 1127.006, 2216.016 1126.971 C 2217.932 1126.935, 2279.575 1128.481, 2353 1130.406 C 2426.425 1132.332, 2487.625 1133.896, 2489 1133.883 L 2491.500 1133.859 2487.778 1132.492 C 2485.731 1131.740, 2409.456 1103.482, 2318.278 1069.698 C 2227.100 1035.914, 2141.475 1004.315, 2128 999.478 C 2114.525 994.642, 2080.775 982.243, 2053 971.925 C 2025.225 961.607, 1996.425 950.859, 1989 948.040 C 1981.575 945.222, 1973.700 942.494, 1971.500 941.978 C 1969.300 941.463, 1923.625 938.336, 1870 935.029 C 1816.375 931.723, 1684.300 923.606, 1576.500 916.993 C 1468.700 910.379, 1364.525 904.097, 1345 903.033 C 1325.475 901.969, 1300.050 900.625, 1288.500 900.046 C 1276.950 899.467, 1265.925 899.002, 1264 899.012 C 1262.075 899.022, 1259.825 899.457, 1259 899.979 M 2610.481 1469.250 C 2610.230 1469.938, 2610.356 1480.175, 2610.762 1492 L 2611.500 1513.500 2633.500 1513.788 C 2645.600 1513.947, 2705 1513.544, 2765.500 1512.894 C 2826 1512.244, 2886.151 1511.439, 2899.169 1511.106 C 2912.187 1510.773, 2923.175 1510.162, 2923.586 1509.750 L 2924.333 1509 2922.817 1509 C 2921.983 1509, 2857.220 1500.468, 2778.900 1490.039 C 2700.580 1479.610, 2631.890 1470.385, 2626.257 1469.539 C 2620.623 1468.693, 2614.871 1468, 2613.475 1468 L 2610.937 1468 2610.481 1469.250 M 2485.500 1641.082 C 2480 1641.501, 2470.949 1642.775, 2465.388 1643.913 C 2459.826 1645.051, 2449.992 1647.803, 2443.535 1650.030 C 2437.078 1652.256, 2428.579 1655.690, 2424.648 1657.659 C 2420.716 1659.629, 2413.805 1663.640, 2409.289 1666.572 C 2404.774 1669.505, 2397.411 1675.408, 2392.929 1679.690 C 2388.446 1683.973, 2382.053 1690.857, 2378.720 1694.988 C 2375.388 1699.120, 2369.978 1706.550, 2366.698 1711.500 C 2363.417 1716.450, 2357.703 1726.672, 2354 1734.215 C 2350.296 1741.759, 2345.599 1752.949, 2343.561 1759.082 C 2341.524 1765.216, 2338.787 1775.395, 2337.479 1781.704 C 2336.170 1788.013, 2334.569 1798.648, 2333.919 1805.337 L 2332.739 1817.500 2333.365 1828.593 C 2333.709 1834.694, 2334.679 1843.694, 2335.520 1848.593 C 2336.362 1853.492, 2338.644 1863.125, 2340.592 1870 L 2344.133 1882.500 2349.184 1891 C 2351.962 1895.675, 2356.153 1902.200, 2358.497 1905.500 C 2360.841 1908.800, 2365.223 1913.827, 2368.235 1916.670 C 2371.247 1919.514, 2376.139 1923.383, 2379.106 1925.269 C 2382.073 1927.155, 2387.425 1929.855, 2391 1931.268 C 2394.575 1932.682, 2400.391 1934.582, 2403.924 1935.492 C 2407.457 1936.401, 2415.107 1937.778, 2420.924 1938.553 C 2426.741 1939.327, 2436.450 1939.966, 2442.500 1939.972 C 2448.550 1939.978, 2457.550 1939.521, 2462.500 1938.956 C 2467.450 1938.391, 2476 1937.019, 2481.500 1935.908 C 2487 1934.796, 2496.225 1932.314, 2502 1930.392 C 2507.775 1928.470, 2514.975 1925.507, 2518 1923.806 C 2521.025 1922.106, 2525.975 1918.806, 2529 1916.473 C 2532.025 1914.140, 2538.491 1908.242, 2543.369 1903.366 C 2548.248 1898.490, 2554.998 1890.899, 2558.369 1886.497 C 2561.741 1882.095, 2564.950 1877.786, 2565.500 1876.922 C 2566.050 1876.057, 2568.669 1872.106, 2571.320 1868.142 C 2573.971 1864.177, 2578.559 1855.917, 2581.516 1849.785 C 2584.474 1843.653, 2586.639 1838.225, 2586.329 1837.723 C 2586.018 1837.221, 2586.645 1835.615, 2587.721 1834.155 C 2588.797 1832.695, 2590.866 1827.900, 2592.318 1823.500 C 2593.769 1819.100, 2595.911 1811.450, 2597.077 1806.500 C 2598.243 1801.550, 2599.195 1795.925, 2599.193 1794 C 2599.191 1792.075, 2599.699 1789.880, 2600.323 1789.122 L 2601.457 1787.744 2601.411 1768.122 C 2601.385 1757.330, 2601.300 1746.635, 2601.222 1744.356 C 2601.145 1742.077, 2600.168 1735.730, 2599.051 1730.252 C 2597.935 1724.774, 2595.834 1716.739, 2594.382 1712.396 C 2592.930 1708.053, 2589.715 1700.450, 2587.237 1695.500 C 2584.759 1690.550, 2580.915 1683.800, 2578.694 1680.500 C 2576.473 1677.200, 2571.021 1670.751, 2566.578 1666.169 L 2558.500 1657.839 2551.500 1653.479 L 2544.500 1649.118 2535.500 1646.130 C 2530.550 1644.487, 2522.900 1642.681, 2518.500 1642.117 C 2514.100 1641.553, 2507.125 1640.918, 2503 1640.705 C 2498.875 1640.493, 2491 1640.663, 2485.500 1641.082 M 235.385 1648.440 C 235.028 1649.369, 235.002 1652.237, 235.325 1654.814 C 235.649 1657.391, 243.797 1719.766, 253.432 1793.425 C 263.067 1867.084, 271.328 1927.728, 271.789 1928.189 L 272.627 1929.027 307.063 1928.763 L 341.500 1928.500 376.197 1859.500 C 395.281 1821.550, 410.958 1790.725, 411.035 1791 C 411.112 1791.275, 414.230 1821.940, 417.964 1859.145 C 421.698 1896.350, 425.060 1927.288, 425.435 1927.895 L 426.118 1929 464.033 1929 L 501.949 1929 503.474 1926.050 C 504.313 1924.427, 505 1922.550, 505 1921.878 C 505 1921.207, 505.606 1919.947, 506.347 1919.079 C 507.089 1918.210, 511.629 1909.286, 516.437 1899.246 C 521.244 1889.206, 525.270 1880.364, 525.383 1879.597 C 525.496 1878.830, 526.104 1877.580, 526.735 1876.819 C 527.366 1876.059, 531.734 1867.407, 536.441 1857.593 C 541.149 1847.779, 545 1839.279, 545 1838.704 C 545 1838.128, 545.600 1836.947, 546.334 1836.079 C 547.068 1835.210, 552.018 1825.375, 557.334 1814.221 C 562.650 1803.068, 567 1793.318, 567 1792.554 C 567 1791.791, 567.393 1791.017, 567.872 1790.833 C 568.352 1790.650, 583.877 1759.030, 602.372 1720.567 C 620.868 1682.104, 636 1650.336, 636 1649.971 C 636 1649.606, 630.529 1649.013, 623.843 1648.654 C 617.157 1648.294, 599.382 1648, 584.343 1648 L 557 1648 555.250 1649.778 C 554.288 1650.756, 539.325 1684.044, 522 1723.751 C 504.675 1763.457, 490.247 1795.957, 489.938 1795.972 C 489.629 1795.988, 487.893 1777.662, 486.080 1755.250 C 484.268 1732.838, 481.723 1702.575, 480.426 1688 C 479.129 1673.425, 477.807 1659.925, 477.490 1658 C 477.173 1656.075, 476.687 1653.037, 476.411 1651.250 L 475.909 1648 436.612 1648 L 397.314 1648 391.774 1659.750 C 388.727 1666.213, 372.642 1700.525, 356.030 1736 C 339.418 1771.475, 325.415 1800.928, 324.913 1801.450 L 324 1802.400 324 1801.114 C 324 1800.406, 320.821 1766.004, 316.936 1724.664 L 309.872 1649.500 308.932 1648.546 L 307.993 1647.593 272.013 1647.172 L 236.033 1646.751 235.385 1648.440 M 782.226 1649.839 C 781.526 1650.283, 747.895 1713.106, 707.492 1789.444 C 667.088 1865.782, 634.275 1928.637, 634.574 1929.120 L 635.118 1930 672.809 1929.985 L 710.500 1929.969 711.887 1929.091 C 712.649 1928.608, 718.274 1918.617, 724.387 1906.889 L 735.500 1885.565 759 1885.793 C 771.925 1885.919, 791.099 1886.303, 801.608 1886.647 L 820.717 1887.273 822.960 1905.386 C 824.193 1915.349, 825.523 1924.850, 825.915 1926.500 L 826.627 1929.500 865.564 1929.500 L 904.500 1929.500 904.175 1926.512 C 903.996 1924.868, 903.414 1922.999, 902.882 1922.358 L 901.914 1921.191 902.459 1918.846 L 903.003 1916.500 899.548 1896.500 C 897.648 1885.500, 895.884 1874.700, 895.630 1872.500 C 895.375 1870.300, 887.451 1820.125, 878.022 1761 C 868.592 1701.875, 860.464 1652.487, 859.960 1651.250 L 859.043 1649 821.271 1649.015 L 783.500 1649.031 782.226 1649.839 M 1065.484 1652.225 C 1065.173 1653.476, 1054.385 1716.363, 1041.511 1791.973 L 1018.105 1929.447 1019.302 1930.208 L 1020.500 1930.969 1056.500 1930.969 C 1076.300 1930.969, 1093.014 1930.639, 1093.643 1930.235 L 1094.786 1929.500 1101.143 1888 L 1107.500 1846.500 1121 1846.837 C 1128.425 1847.022, 1134.822 1847.479, 1135.215 1847.852 C 1135.608 1848.225, 1141.394 1866.298, 1148.073 1888.015 C 1154.751 1909.732, 1160.636 1928.293, 1161.150 1929.262 L 1162.083 1931.024 1199.292 1930.762 L 1236.500 1930.500 1236.169 1928 C 1235.987 1926.625, 1235.200 1924.193, 1234.419 1922.596 C 1233.639 1920.999, 1233 1918.927, 1233 1917.990 C 1233 1917.054, 1230.777 1908.685, 1228.059 1899.394 C 1225.342 1890.102, 1222.670 1880.700, 1222.122 1878.500 C 1221.573 1876.300, 1217.946 1863.732, 1214.062 1850.572 C 1210.178 1837.411, 1207 1826.156, 1207 1825.560 C 1207 1824.965, 1211.148 1821.782, 1216.218 1818.489 L 1225.436 1812.500 1234.718 1803.288 C 1239.823 1798.222, 1244 1793.496, 1244 1792.785 C 1244 1792.075, 1245.313 1790.254, 1246.918 1788.739 L 1249.836 1785.985 1254.861 1775.743 C 1257.624 1770.109, 1260.987 1761.828, 1262.334 1757.341 L 1264.782 1749.182 1263.798 1748.198 L 1262.815 1747.215 1264.142 1744.857 L 1265.469 1742.500 1265.484 1732 L 1265.500 1721.500 1264.103 1713.718 C 1263.335 1709.438, 1262.322 1705.699, 1261.853 1705.409 C 1261.384 1705.119, 1260.995 1703.896, 1260.988 1702.691 C 1260.981 1701.486, 1259.454 1697.014, 1257.594 1692.754 C 1255.734 1688.493, 1252.169 1681.743, 1249.673 1677.754 C 1247.177 1673.764, 1242.867 1667.967, 1240.095 1664.871 L 1235.056 1659.242 1225.278 1654.871 L 1215.500 1650.500 1140.775 1650.225 L 1066.050 1649.951 1065.484 1652.225 M 1396.501 1652.250 C 1396.260 1652.938, 1385.315 1715.600, 1372.177 1791.500 L 1348.290 1929.500 1349.194 1930.500 L 1350.099 1931.500 1442.692 1931.807 L 1535.286 1932.114 1536.172 1931.228 C 1536.660 1930.740, 1537.462 1927.002, 1537.955 1922.921 C 1538.447 1918.839, 1539.976 1907.400, 1541.351 1897.500 C 1542.726 1887.600, 1544.139 1876.531, 1544.489 1872.901 L 1545.127 1866.302 1522.313 1865.658 C 1509.766 1865.303, 1485.662 1864.717, 1468.750 1864.355 L 1438 1863.696 1438 1862.437 C 1438 1861.744, 1439.128 1853.825, 1440.506 1844.839 C 1441.884 1835.852, 1443.260 1827.419, 1443.563 1826.097 L 1444.115 1823.694 1493.241 1824.097 L 1542.367 1824.500 1543.123 1821.500 C 1543.538 1819.850, 1544.787 1811.525, 1545.899 1803 C 1547.010 1794.475, 1549.097 1780.132, 1550.537 1771.128 L 1553.155 1754.755 1552.271 1753.871 L 1551.387 1752.987 1503.443 1754.416 C 1477.075 1755.203, 1455.216 1755.543, 1454.870 1755.173 C 1454.523 1754.803, 1455.669 1745.275, 1457.416 1734 L 1460.593 1713.500 1512.938 1713 L 1565.283 1712.500 1566.056 1711 C 1566.481 1710.175, 1568.016 1700.500, 1569.469 1689.500 C 1570.921 1678.500, 1572.284 1667.700, 1572.498 1665.500 C 1572.711 1663.300, 1573.194 1659.138, 1573.570 1656.250 L 1574.254 1651 1485.596 1651 L 1396.937 1651 1396.501 1652.250 M 1695.582 1654.750 C 1695.265 1656.263, 1692.540 1671.675, 1689.527 1689 C 1686.513 1706.325, 1675.937 1767.223, 1666.024 1824.328 C 1656.111 1881.433, 1648 1928.970, 1648 1929.966 L 1648 1931.775 1672.250 1932.475 C 1685.588 1932.860, 1715.850 1933.008, 1739.500 1932.805 L 1782.500 1932.436 1789.401 1930.131 L 1796.302 1927.826 1804.901 1922.489 C 1809.630 1919.554, 1816.875 1914.620, 1821 1911.526 C 1825.125 1908.431, 1833.123 1901.826, 1838.773 1896.847 C 1844.423 1891.869, 1853.361 1882.779, 1858.635 1876.648 C 1863.909 1870.516, 1871.549 1860.513, 1875.612 1854.417 C 1879.675 1848.321, 1883 1842.611, 1883 1841.726 C 1883 1840.842, 1883.507 1839.805, 1884.127 1839.421 C 1884.747 1839.038, 1887.419 1834.174, 1890.065 1828.612 C 1892.711 1823.051, 1896.434 1813.886, 1898.338 1808.247 L 1901.801 1797.995 1900.846 1797.405 L 1899.891 1796.815 1901.395 1794.521 L 1902.898 1792.226 1904.556 1780.920 L 1906.214 1769.613 1905.611 1754.556 L 1905.007 1739.500 1902.562 1729.429 C 1901.218 1723.890, 1899.028 1716.465, 1897.697 1712.929 C 1896.366 1709.393, 1893.578 1703.125, 1891.500 1699 C 1889.423 1694.875, 1885.507 1688.216, 1882.799 1684.202 C 1880.091 1680.189, 1874.884 1673.735, 1871.229 1669.860 L 1864.584 1662.815 1858.042 1659.523 C 1854.444 1657.713, 1848.415 1655.279, 1844.645 1654.115 L 1837.789 1652 1766.974 1652 L 1696.159 1652 1695.582 1654.750 M 2736.484 1654.225 C 2736.173 1655.476, 2725.385 1718.363, 2712.511 1793.973 L 2689.105 1931.447 2690.302 1932.208 L 2691.500 1932.969 2727.500 1932.969 C 2747.300 1932.969, 2764.014 1932.639, 2764.643 1932.235 L 2765.786 1931.500 2772.143 1890 L 2778.500 1848.500 2797 1847.888 L 2815.500 1847.276 2825.500 1844.686 C 2831 1843.261, 2840.088 1840.537, 2845.696 1838.632 C 2851.303 1836.727, 2859.853 1833.485, 2864.696 1831.427 C 2869.538 1829.369, 2877.862 1825.216, 2883.193 1822.198 C 2888.524 1819.180, 2895.630 1814.491, 2898.985 1811.777 C 2902.339 1809.063, 2908.166 1803.221, 2911.935 1798.796 C 2915.703 1794.371, 2920.719 1787.372, 2923.082 1783.242 C 2925.445 1779.112, 2928.882 1771.730, 2930.720 1766.837 L 2934.062 1757.941 2935.626 1747.720 L 2937.190 1737.500 2936.579 1728.317 L 2935.969 1719.135 2933.575 1709.698 C 2932.259 1704.509, 2929.614 1696.869, 2927.697 1692.721 C 2925.781 1688.573, 2922.211 1682.102, 2919.765 1678.340 C 2917.318 1674.578, 2913.224 1669.188, 2910.667 1666.363 L 2906.017 1661.225 2896.259 1656.863 L 2886.500 1652.500 2811.775 1652.225 L 2737.050 1651.951 2736.484 1654.225 M 2042.484 1655.225 C 2042.173 1656.476, 2031.385 1719.363, 2018.511 1794.973 L 1995.105 1932.447 1996.302 1933.208 L 1997.500 1933.969 2033.500 1933.969 C 2053.300 1933.969, 2070.014 1933.639, 2070.643 1933.235 L 2071.786 1932.500 2078.143 1891 L 2084.500 1849.500 2098 1849.837 C 2105.425 1850.022, 2111.822 1850.479, 2112.215 1850.852 C 2112.608 1851.225, 2118.394 1869.298, 2125.073 1891.015 C 2131.751 1912.732, 2137.633 1931.287, 2138.143 1932.250 L 2139.070 1934 2175.976 1934 L 2212.882 1934 2213.330 1933.250 C 2213.577 1932.838, 2207.079 1909.331, 2198.889 1881.013 C 2190.700 1852.695, 2184 1829.065, 2184 1828.501 C 2184 1827.938, 2188.115 1824.782, 2193.145 1821.489 L 2202.290 1815.500 2209.944 1808 C 2214.154 1803.875, 2218.959 1798.912, 2220.622 1796.971 C 2222.286 1795.029, 2223.480 1792.941, 2223.277 1792.330 C 2223.073 1791.719, 2223.948 1790.382, 2225.222 1789.359 C 2226.495 1788.337, 2229.197 1784.321, 2231.225 1780.436 C 2233.254 1776.551, 2236.274 1769.311, 2237.937 1764.348 C 2239.600 1759.384, 2241.249 1752.438, 2241.601 1748.911 C 2241.952 1745.385, 2242.263 1738, 2242.291 1732.500 L 2242.341 1722.500 2240.559 1714.500 C 2239.579 1710.100, 2238.503 1706.050, 2238.167 1705.500 C 2237.832 1704.950, 2237.430 1703.678, 2237.273 1702.672 C 2237.117 1701.667, 2235.464 1697.545, 2233.601 1693.512 C 2231.738 1689.479, 2228.211 1683.102, 2225.765 1679.340 C 2223.318 1675.578, 2219.224 1670.188, 2216.667 1667.363 L 2212.017 1662.225 2202.259 1657.863 L 2192.500 1653.500 2117.775 1653.225 L 2043.050 1652.951 2042.484 1655.225 M 2471 1711.276 C 2467.425 1712.499, 2462.373 1714.750, 2459.773 1716.278 C 2457.174 1717.807, 2452.136 1721.527, 2448.578 1724.545 L 2442.109 1730.033 2435.539 1738.767 C 2431.925 1743.570, 2426.966 1751.368, 2424.517 1756.096 C 2422.069 1760.823, 2418.733 1768.698, 2417.104 1773.596 C 2415.475 1778.493, 2413.362 1786.100, 2412.407 1790.500 L 2410.672 1798.500 2410.711 1813 L 2410.749 1827.500 2412.881 1835.500 C 2414.053 1839.900, 2416.438 1846.425, 2418.181 1850 L 2421.350 1856.500 2427.425 1862.588 L 2433.500 1868.675 2439.214 1870.810 L 2444.928 1872.945 2452.869 1872.528 C 2457.237 1872.299, 2463.265 1871.398, 2466.264 1870.526 C 2469.263 1869.654, 2474.300 1867.385, 2477.457 1865.484 C 2480.614 1863.583, 2485.862 1859.718, 2489.120 1856.896 C 2492.378 1854.074, 2497.965 1847.880, 2501.537 1843.132 C 2505.109 1838.385, 2510.064 1830.575, 2512.548 1825.779 C 2515.032 1820.982, 2518.572 1812.432, 2520.415 1806.779 C 2522.258 1801.125, 2524.372 1793.125, 2525.112 1789 L 2526.459 1781.500 2526.356 1768 L 2526.253 1754.500 2524.121 1746.500 C 2522.948 1742.100, 2520.562 1735.575, 2518.819 1732 L 2515.650 1725.500 2509.575 1719.412 L 2503.500 1713.325 2497.712 1711.162 L 2491.925 1709 2484.712 1709.026 L 2477.500 1709.052 2471 1711.276 M 1127.968 1712.250 C 1127.950 1712.938, 1125.756 1727.450, 1123.092 1744.500 C 1120.428 1761.550, 1118.444 1775.838, 1118.683 1776.250 C 1118.922 1776.662, 1123.294 1777, 1128.399 1777 L 1137.680 1777 1145.590 1775.001 C 1149.941 1773.901, 1156.710 1771.428, 1160.633 1769.504 L 1167.766 1766.007 1172.770 1761.253 C 1175.522 1758.639, 1178.817 1754.475, 1180.092 1752 L 1182.410 1747.500 1182.451 1741.500 L 1182.493 1735.500 1179.747 1730.824 C 1178.237 1728.252, 1175.314 1724.748, 1173.251 1723.038 C 1171.188 1721.328, 1167.250 1718.826, 1164.500 1717.479 C 1161.750 1716.132, 1155.941 1714.123, 1151.590 1713.015 L 1143.680 1711 1135.840 1711 L 1128 1711 1127.968 1712.250 M 2798.968 1714.250 C 2798.950 1714.938, 2796.756 1729.450, 2794.092 1746.500 C 2791.428 1763.550, 2789.444 1777.838, 2789.683 1778.250 C 2789.922 1778.662, 2794.294 1779, 2799.399 1779 L 2808.680 1779 2816.590 1777.001 C 2820.941 1775.901, 2827.710 1773.428, 2831.633 1771.504 L 2838.766 1768.007 2843.770 1763.253 C 2846.522 1760.639, 2849.817 1756.475, 2851.092 1754 L 2853.410 1749.500 2853.451 1743.500 L 2853.493 1737.500 2850.747 1732.824 C 2849.237 1730.252, 2846.314 1726.748, 2844.251 1725.038 C 2842.188 1723.328, 2838.250 1720.826, 2835.500 1719.479 C 2832.750 1718.132, 2826.941 1716.123, 2822.590 1715.015 L 2814.680 1713 2806.840 1713 L 2799 1713 2798.968 1714.250 M 2104.968 1715.250 C 2104.950 1715.938, 2102.756 1730.450, 2100.092 1747.500 C 2097.428 1764.550, 2095.444 1778.838, 2095.683 1779.250 C 2095.922 1779.662, 2100.294 1780, 2105.399 1780 L 2114.680 1780 2122.590 1778.001 C 2126.941 1776.901, 2133.710 1774.428, 2137.633 1772.504 L 2144.766 1769.007 2149.770 1764.253 C 2152.522 1761.639, 2155.817 1757.475, 2157.092 1755 L 2159.410 1750.500 2159.451 1744.500 L 2159.493 1738.500 2156.747 1733.824 C 2155.237 1731.252, 2152.314 1727.748, 2150.251 1726.038 C 2148.188 1724.328, 2144.250 1721.826, 2141.500 1720.479 C 2138.750 1719.132, 2132.941 1717.123, 2128.590 1716.015 L 2120.680 1714 2112.840 1714 L 2105 1714 2104.968 1715.250 M 1769.284 1717.250 C 1768.755 1717.938, 1762.171 1751.350, 1754.652 1791.500 C 1747.133 1831.650, 1740.986 1864.838, 1740.991 1865.250 C 1740.996 1865.662, 1742.265 1866, 1743.812 1866 C 1745.358 1866, 1750.139 1865.079, 1754.436 1863.954 C 1758.732 1862.828, 1765.084 1860.622, 1768.550 1859.050 C 1772.016 1857.478, 1777.978 1854.170, 1781.799 1851.699 C 1785.619 1849.228, 1791.969 1844.164, 1795.910 1840.446 C 1799.851 1836.728, 1805.330 1830.720, 1808.085 1827.093 C 1810.840 1823.467, 1815.303 1816, 1818.003 1810.500 C 1820.703 1805, 1823.868 1797.125, 1825.038 1793 L 1827.164 1785.500 1827.714 1773.890 L 1828.263 1762.280 1826.609 1754.847 C 1825.700 1750.758, 1823.587 1744.519, 1821.914 1740.982 C 1820.241 1737.445, 1817.250 1732.424, 1815.268 1729.824 C 1813.285 1727.224, 1809.723 1723.704, 1807.351 1722 L 1803.039 1718.904 1796.269 1717.469 L 1789.500 1716.035 1779.872 1716.017 L 1770.245 1716 1769.284 1717.250 M 787.285 1783.938 L 772.069 1813.826 780.285 1814.379 C 784.803 1814.683, 793.563 1815.180, 799.750 1815.484 L 811 1816.036 811 1813.633 C 811 1812.311, 809.425 1798.916, 807.500 1783.865 C 805.576 1768.814, 804.001 1755.938, 804 1755.250 C 804 1754.563, 803.663 1754.011, 803.250 1754.025 C 802.837 1754.039, 795.653 1767.500, 787.285 1783.938" stroke="none" fill="#db833b" fill-rule="evenodd"/></svg>